:SAMPLES-PER-SECOND 30
:FULLY-SPECIFIED
:DEGREES
981
root  -50.7817 38.5906 -1.31303 -74.1938 -86.1611 69.5008
RightUpLeg  13.2401 0.490808 -8.45979
RightLeg  22.3992 1.78424 0.593047
RightFoot  -23.7343 0.805791 8.84388
RightToes  3.49245e-010 0 -3.6325e-017
Spine  11.5591 1.18672 6.83679
Spine1  -0.897955 3.47265 -10.104
HEad  -4.43333 -5.03341 -9.58033
LeftShoulder1  -1.10666 6.75861 -27.7657
LeftArm  -21.337 18.5505 -38.6932
LeftForeArm  17.0459 -8.93002 0.795509
LeftHand  -0.0204053 7.52251 1.00083
RightShoulder  -0.562917 -5.54156 20.773
RightArm  -13.4661 -17.4865 40.2898
RightForeArm  19.7258 19.5069 2.01566
RightHand  -0.255538 6.6928 -2.79476
LeftUpLeg  -19.3666 3.67688 2.1873
LeftLeg  11.7599 2.1561 0.919856
LeftFoot  7.7649 0.661189 -4.21689
LeftToes  -5.6298e-010 8.41567e-011 -1.83319e-011
982
root  -49.5622 38.678 -1.72532 -71.2101 -87.1065 66.4366
RightUpLeg  11.8259 -0.503507 -6.84335
RightLeg  21.3262 1.39189 0.381538
RightFoot  -23.9266 0.465995 5.67868
RightToes  3.49245e-010 0 -3.6325e-017
Spine  12.9863 0.687363 8.45857
Spine1  -0.807355 3.20395 -10.0979
HEad  -7.39597 -5.65466 -10.3352
LeftShoulder1  -1.01919 6.5823 -26.8586
LeftArm  -21.0847 18.0196 -39.5975
LeftForeArm  16.5224 -7.80059 0.827571
LeftHand  -0.0297078 6.43909 0.607291
RightShoulder  -0.496734 -5.30816 20.6395
RightArm  -12.6339 -15.8116 39.7034
RightForeArm  20.4396 19.0106 1.72393
RightHand  -0.16981 6.50268 -2.00433
LeftUpLeg  -19.3131 4.52644 3.54517
LeftLeg  8.60845 1.65295 0.772888
LeftFoot  5.38664 0.595916 -4.24409
LeftToes  -5.6298e-010 8.41567e-011 -1.83319e-011
983
root  -48.4605 38.8614 -2.10971 -65.4485 -87.1759 61.1415
RightUpLeg  9.57961 -1.29008 -6.06581
RightLeg  21.1056 1.22855 0.307434
RightFoot  -23.2334 0.25163 3.92796
RightToes  3.49245e-010 0 -3.6325e-017
Spine  12.8938 0.327209 8.5362
Spine1  0.0427916 2.83289 -9.67109
HEad  -9.17308 -6.21657 -10.1925
LeftShoulder1  -0.919158 6.41166 -25.2753
LeftArm  -21.2824 17.7958 -40.6631
LeftForeArm  16.9224 -6.42593 1.11827
LeftHand  -0.0275891 5.34993 1.02076
RightShoulder  -0.56519 -5.49482 21.5484
RightArm  -10.3393 -14.042 37.5035
RightForeArm  19.0399 18.3794 1.61925
RightHand  -0.171525 6.8868 -1.95984
LeftUpLeg  -18.8458 4.93195 3.91427
LeftLeg  4.44748 1.85254 0.635328
LeftFoot  1.32983 0.394733 -3.65576
LeftToes  -5.6298e-010 8.41567e-011 -1.83319e-011
984
root  -47.535 39.1037 -2.45504 -65.1401 -87.116 61.4294
RightUpLeg  7.40756 -1.4687 -5.4225
RightLeg  20.8134 0.869798 0.15209
RightFoot  -21.806 0.139716 3.13493
RightToes  3.49245e-010 0 -3.6325e-017
Spine  12.4432 0.245775 8.18588
Spine1  0.196475 2.57192 -9.00176
HEad  -9.48283 -7.06414 -9.12034
LeftShoulder1  -0.728101 5.92087 -23.786
LeftArm  -21.1232 18.2521 -40.4868
LeftForeArm  17.5722 -5.11898 1.29311
LeftHand  -0.0353574 6.0474 0.2297
RightShoulder  -0.64941 -5.75974 22.0273
RightArm  -8.73199 -13.09 35.4753
RightForeArm  15.9933 16.7017 0.965221
RightHand  -0.306484 7.32879 -3.16224
LeftUpLeg  -17.7092 5.20351 4.25075
LeftLeg  0.162236 2.40214 0.42104
LeftFoot  -2.26442 0.382329 -4.63827
LeftToes  -5.6298e-010 8.41567e-011 -1.83319e-011
985
root  -46.7119 39.3494 -2.72347 -55.9581 -86.7316 52.6964
RightUpLeg  5.98252 -2.82684 -5.30013
RightLeg  19.8934 1.37606 0.316252
RightFoot  -20.119 0.0482728 2.40832
RightToes  3.49245e-010 0 -3.6325e-017
Spine  12.544 -0.016916 7.16433
Spine1  -0.928044 1.81655 -7.31283
HEad  -8.6399 -6.85596 -8.45206
LeftShoulder1  -0.620402 5.60054 -23.2192
LeftArm  -20.9565 19.0694 -38.8624
LeftForeArm  17.7681 -4.18632 1.53821
LeftHand  -0.0592647 7.07996 -1.43792
RightShoulder  -0.571072 -5.53719 21.2352
RightArm  -9.01083 -14.0513 33.771
RightForeArm  15.0647 15.5159 0.234862
RightHand  -0.251909 7.63086 -2.60435
LeftUpLeg  -17.3417 5.41247 4.31625
LeftLeg  -0.465 2.5165 0.094571
LeftFoot  -2.51696 0.512151 -6.42862
LeftToes  -5.6298e-010 8.41567e-011 -1.83319e-011
986
root  -45.9894 39.5774 -2.91358 -56.4282 -86.0993 53.2085
RightUpLeg  5.38822 -3.88527 -5.64786
RightLeg  18.5374 1.97787 0.279587
RightFoot  -18.6804 -0.00271493 1.93295
RightToes  3.49245e-010 0 -3.6325e-017
Spine  12.6244 -0.0346525 6.22803
Spine1  -1.35211 1.49253 -6.07934
HEad  -8.43219 -7.16851 -7.71922
LeftShoulder1  -0.550245 5.41822 -22.3169
LeftArm  -20.5387 19.1739 -37.023
LeftForeArm  15.7952 -3.99019 1.48509
LeftHand  -0.0502514 7.27446 -0.597826
RightShoulder  -0.525283 -5.4478 20.1308
RightArm  -8.67425 -15.2001 31.9718
RightForeArm  12.6002 13.9315 -0.562136
RightHand  -0.21961 7.06973 -2.39967
LeftUpLeg  -16.9303 5.18916 3.90264
LeftLeg  2.21388 2.67128 0.193528
LeftFoot  -2.56781 0.459321 -5.78155
LeftToes  -5.6298e-010 8.41567e-011 -1.83319e-011
987
root  -45.3514 39.7351 -3.00426 -55.6604 -85.8748 52.4286
RightUpLeg  4.93847 -5.81181 -5.95644
RightLeg  17.3373 3.71535 0.421151
RightFoot  -17.5023 -0.0379502 1.49297
RightToes  3.49245e-010 0 -3.6325e-017
Spine  12.3121 -0.129076 7.08489
Spine1  -1.18539 1.56411 -6.529
HEad  -8.79983 -8.28902 -6.63678
LeftShoulder1  -0.45743 5.18566 -20.6736
LeftArm  -21.095 18.9973 -35.5607
LeftForeArm  15.1152 -4.45769 1.85339
LeftHand  -0.0464818 6.6812 -0.858082
RightShoulder  -0.587778 -5.67018 20.2841
RightArm  -7.61649 -15.7559 28.7872
RightForeArm  10.3366 12.0152 -1.24613
RightHand  -0.19918 7.38769 -2.15665
LeftUpLeg  -16.4746 5.158 3.8127
LeftLeg  6.44628 2.04647 0.442906
LeftFoot  -3.26207 0.394954 -5.31359
LeftToes  -5.6298e-010 8.41567e-011 -1.83319e-011
988
root  -44.7742 39.8429 -3.02941 -62.7299 -86.0531 59.5598
RightUpLeg  4.35445 -7.29822 -6.30731
RightLeg  16.3284 5.55019 0.666053
RightFoot  -16.6489 -0.0655234 1.02428
RightToes  3.49245e-010 0 -3.6325e-017
Spine  11.9297 0.0261202 8.16042
Spine1  -1.29478 1.91744 -7.03648
HEad  -8.95319 -8.9859 -6.31012
LeftShoulder1  -0.363831 4.91529 -19.2053
LeftArm  -21.4066 19.0403 -33.6333
LeftForeArm  13.648 -5.17673 2.06675
LeftHand  -0.0449116 6.60777 -0.743783
RightShoulder  -0.461971 -5.29365 18.7501
RightArm  -6.15868 -16.9163 26.2083
RightForeArm  9.43404 9.43273 -1.81356
RightHand  0.10281 6.63394 0.649548
LeftUpLeg  -15.6916 4.94393 3.96773
LeftLeg  11.129 1.37331 0.631685
LeftFoot  -4.10052 0.337973 -4.95288
LeftToes  -5.6298e-010 8.41567e-011 -1.83319e-011
989
root  -44.2298 39.9078 -3.02073 -67.6576 -86.3849 64.5616
RightUpLeg  3.66742 -8.48245 -6.37661
RightLeg  15.6926 7.18652 0.999101
RightFoot  -15.9878 -0.0651407 1.06336
RightToes  3.49245e-010 0 -3.6325e-017
Spine  11.9547 0.164924 8.4698
Spine1  -2.19501 1.92165 -5.97562
HEad  -8.57566 -8.73326 -6.92296
LeftShoulder1  -0.300183 4.70469 -18.3191
LeftArm  -21.2331 19.2522 -30.9531
LeftForeArm  11.8418 -5.73326 2.08344
LeftHand  -0.0433784 6.77396 0.0973093
RightShoulder  -0.309943 -4.82859 16.2647
RightArm  -5.58854 -17.9389 23.93
RightForeArm  7.68821 7.0443 -2.18729
RightHand  0.105853 5.40123 0.916724
LeftUpLeg  -14.5062 3.79886 4.49145
LeftLeg  15.4363 1.33672 0.761899
LeftFoot  -5.05682 0.283243 -4.59756
LeftToes  -5.6298e-010 8.41567e-011 -1.83319e-011
990
root  -43.7317 39.9273 -2.98732 -69.854 -86.9644 66.9088
RightUpLeg  2.91674 -9.22806 -6.07132
RightLeg  15.2256 8.46875 1.3613
RightFoot  -15.5006 -0.0604153 1.22472
RightToes  3.49245e-010 0 -3.6325e-017
Spine  11.5398 0.264805 8.97351
Spine1  -2.65055 1.93963 -4.94423
HEad  -8.41194 -8.60657 -7.35371
LeftShoulder1  -0.2069 4.38886 -16.6305
LeftArm  -21.0329 19.2601 -29.0109
LeftForeArm  10.7367 -5.6498 2.15971
LeftHand  -0.0308352 6.48149 0.700146
RightShoulder  -0.236856 -4.57909 14.4925
RightArm  -5.36849 -18.509 20.9809
RightForeArm  3.85273 5.68713 -2.43902
RightHand  -0.0918629 7.00517 -1.20965
LeftUpLeg  -13.2324 3.51969 5.22008
LeftLeg  19.6475 0.413076 0.481536
LeftFoot  -6.34804 0.22751 -4.36241
LeftToes  -5.6298e-010 8.41567e-011 -1.83319e-011
991
root  -43.2513 39.9391 -2.94779 -65.5133 -87.6346 62.9139
RightUpLeg  2.04322 -9.71989 -5.56285
RightLeg  14.6919 9.13709 1.86866
RightFoot  -14.9494 -0.056181 1.43
RightToes  3.49245e-010 0 -3.6325e-017
Spine  11.2634 0.0102354 9.38713
Spine1  -3.53472 1.61383 -4.24475
HEad  -8.12071 -8.22292 -7.12389
LeftShoulder1  -0.0995024 3.95531 -14.6994
LeftArm  -20.7238 20.0272 -26.6809
LeftForeArm  9.67328 -6.06985 2.15889
LeftHand  -0.0255834 6.41448 0.74889
RightShoulder  -0.142133 -4.19871 12.851
RightArm  -4.86841 -18.9672 18.1018
RightForeArm  2.75086 5.7465 -2.54793
RightHand  0.0559175 5.92352 0.240081
LeftUpLeg  -12.0009 3.42821 6.04298
LeftLeg  23.1256 -0.386358 0.146446
LeftFoot  -7.43125 0.201292 -4.57757
LeftToes  -5.6298e-010 8.41567e-011 -1.83319e-011
992
root  -42.8186 39.9596 -2.90223 -61.4264 -88.0522 59.3069
RightUpLeg  1.07938 -9.7871 -5.11905
RightLeg  14.1154 9.32742 2.04189
RightFoot  -14.4879 -0.044689 1.95563
RightToes  3.49245e-010 0 -3.6325e-017
Spine  10.7107 -0.264936 9.55699
Spine1  -4.06437 1.34679 -4.25091
HEad  -7.80279 -7.97985 -6.10495
LeftShoulder1  -0.0107115 3.56707 -12.1249
LeftArm  -21.4354 20.6865 -25.1455
LeftForeArm  9.45497 -6.56242 2.65605
LeftHand  -0.0353332 6.80922 0.161575
RightShoulder  -0.17536 -4.35811 12.7527
RightArm  -3.57062 -18.0293 14.2943
RightForeArm  0.451475 6.15237 -2.11838
RightHand  -0.0708326 6.55737 -1.04464
LeftUpLeg  -10.2805 3.2843 6.45728
LeftLeg  24.9658 -0.948345 -0.155126
LeftFoot  -8.28409 0.165229 -4.33366
LeftToes  -5.6298e-010 8.41567e-011 -1.83319e-011
993
root  -42.3971 39.9885 -2.8382 -57.925 -88.4961 56.3089
RightUpLeg  -0.0197881 -9.52151 -4.57427
RightLeg  13.7071 9.22962 2.03742
RightFoot  -13.8232 -0.0395429 2.482
RightToes  3.49245e-010 0 -3.6325e-017
Spine  9.59131 -0.28479 8.45331
Spine1  -3.59016 0.933427 -2.18917
HEad  -8.12116 -7.91682 -5.76157
LeftShoulder1  -0.0372265 3.69876 -11.4659
LeftArm  -21.011 20.3007 -22.7121
LeftForeArm  7.2435 -6.81944 2.53539
LeftHand  -0.0263174 7.03968 0.633251
RightShoulder  -0.0662118 -3.86969 9.94835
RightArm  -3.69404 -17.9488 13.033
RightForeArm  0.359895 7.08132 -2.12974
RightHand  -0.0405888 7.54816 -0.726704
LeftUpLeg  -8.15222 3.78515 6.7299
LeftLeg  25.0493 -1.62229 -0.49747
LeftFoot  -8.74793 0.154407 -4.44687
LeftToes  -5.6298e-010 8.41567e-011 -1.83319e-011
